<svg xmlns="http://www.w3.org/2000/svg" xmlns:xlink="http://www.w3.org/1999/xlink" width="500" zoomAndPan="magnify" viewBox="0 0 375 187.499995" height="250" preserveAspectRatio="xMidYMid meet" version="1.0"><defs><g/><clipPath id="3abf582f28"><path d="M 101.6875 9.074219 L 191.25 9.074219 L 191.25 119 L 101.6875 119 Z M 101.6875 9.074219 " clip-rule="nonzero"/></clipPath></defs><g clip-path="url(#3abf582f28)"><path fill="#000000" d="M 188.46875 106.835938 C 188.378906 106.964844 188.1875 107.191406 187.84375 107.21875 C 160.570312 109.789062 132.890625 109.785156 105.585938 107.21875 C 105.242188 107.1875 105.050781 106.964844 104.960938 106.835938 C 104.804688 106.601562 104.765625 106.3125 104.847656 106.046875 C 108.535156 94.289062 117.222656 78.289062 137.625 68.859375 C 140.503906 67.527344 142.363281 64.589844 142.367188 61.371094 L 142.367188 61.171875 C 142.367188 59.375 143.777344 57.914062 145.511719 57.914062 L 147.917969 57.914062 C 149.652344 57.914062 151.0625 59.375 151.0625 61.171875 L 151.0625 61.375 C 151.066406 64.589844 152.925781 67.527344 155.804688 68.859375 C 176.207031 78.289062 184.890625 94.289062 188.582031 106.046875 C 188.664062 106.3125 188.625 106.605469 188.46875 106.835938 Z M 146.753906 116.054688 C 143.554688 116.054688 140.578125 114.511719 138.660156 111.988281 C 141.351562 112.035156 144.039062 112.070312 146.730469 112.070312 C 149.433594 112.070312 152.140625 112.035156 154.84375 111.988281 C 152.921875 114.511719 149.945312 116.054688 146.753906 116.054688 Z M 191.371094 105.171875 C 187.503906 92.847656 178.410156 76.085938 157.03125 66.203125 C 155.183594 65.351562 153.988281 63.453125 153.988281 61.371094 L 153.988281 61.171875 C 153.988281 57.855469 151.402344 55.144531 148.175781 55.003906 L 148.175781 -2.9375 C 148.175781 -3.746094 147.523438 -4.402344 146.714844 -4.402344 C 145.90625 -4.402344 145.253906 -3.746094 145.253906 -2.9375 L 145.253906 55.003906 C 142.027344 55.144531 139.441406 57.855469 139.441406 61.171875 L 139.441406 61.371094 C 139.4375 63.453125 138.246094 65.351562 136.398438 66.203125 C 115.019531 76.085938 105.925781 92.847656 102.058594 105.171875 C 101.710938 106.285156 101.882812 107.480469 102.527344 108.453125 C 103.164062 109.414062 104.179688 110.027344 105.3125 110.132812 C 115.222656 111.0625 125.183594 111.652344 135.152344 111.914062 C 137.433594 116.230469 141.890625 118.976562 146.753906 118.976562 C 151.605469 118.976562 156.066406 116.230469 158.355469 111.910156 C 168.304688 111.652344 178.238281 111.0625 188.117188 110.132812 C 189.25 110.027344 190.265625 109.414062 190.902344 108.453125 C 191.546875 107.480469 191.71875 106.285156 191.371094 105.171875 " fill-opacity="1" fill-rule="nonzero"/></g><g fill="#000000" fill-opacity="1"><g transform="translate(4.571008, 109.763778)"><g><path d="M 39.9375 -50.984375 L 39.9375 -49.609375 L 24.1875 -49.609375 L 24.1875 0.078125 L 18.421875 0.078125 L 18.421875 -49.609375 L 2.671875 -49.609375 L 2.671875 -50.984375 Z M 39.9375 -50.984375 "/></g></g></g><g fill="#000000" fill-opacity="1"><g transform="translate(60.004568, 109.763778)"><g><path d="M 29.796875 -49.609375 L 9.75 -49.609375 L 9.75 -27.28125 L 27.609375 -27.28125 L 27.609375 -25.90625 L 9.75 -25.90625 L 9.75 -1.296875 L 29.796875 -1.296875 L 29.796875 0.078125 L 3.890625 0.078125 L 3.890625 -50.984375 L 29.796875 -50.984375 Z M 29.796875 -49.609375 "/></g></g></g><g fill="#000000" fill-opacity="1"><g transform="translate(198.504406, 109.763778)"><g><path d="M 19.328125 -50.984375 C 20.347656 -50.984375 21.765625 -50.832031 23.578125 -50.53125 C 25.398438 -50.238281 27.226562 -49.660156 29.0625 -48.796875 C 30.90625 -47.929688 32.460938 -46.644531 33.734375 -44.9375 C 35.003906 -43.226562 35.640625 -40.992188 35.640625 -38.234375 C 35.640625 -35.316406 35.039062 -32.921875 33.84375 -31.046875 C 32.65625 -29.179688 31.140625 -27.75 29.296875 -26.75 C 27.460938 -25.75 25.582031 -25.019531 23.65625 -24.5625 C 21.738281 -24.101562 20.035156 -23.832031 18.546875 -23.75 C 17.054688 -23.664062 16.070312 -23.625 15.59375 -23.625 L 9.75 -23.625 L 9.75 0.078125 L 3.890625 0.078125 L 3.890625 -50.984375 C 3.890625 -50.984375 4.5 -50.984375 5.71875 -50.984375 C 6.9375 -50.984375 8.410156 -50.984375 10.140625 -50.984375 C 11.878906 -50.984375 13.597656 -50.984375 15.296875 -50.984375 C 17.003906 -50.984375 18.347656 -50.984375 19.328125 -50.984375 Z M 14.125 -25 C 18.882812 -25 22.644531 -25.921875 25.40625 -27.765625 C 28.164062 -29.609375 29.546875 -32.773438 29.546875 -37.265625 C 29.546875 -41.753906 28.367188 -44.929688 26.015625 -46.796875 C 23.660156 -48.671875 20.398438 -49.609375 16.234375 -49.609375 L 9.75 -49.609375 L 9.75 -25 Z M 14.125 -25 "/></g></g></g><g fill="#000000" fill-opacity="1"><g transform="translate(250.367134, 109.763778)"><g><path d="M 31.171875 -51.953125 C 34.796875 -51.953125 38.285156 -51.4375 41.640625 -50.40625 C 45.003906 -49.382812 48 -47.804688 50.625 -45.671875 C 53.25 -43.535156 55.332031 -40.773438 56.875 -37.390625 C 58.414062 -34.003906 59.1875 -29.957031 59.1875 -25.25 C 59.1875 -20.914062 58.550781 -17.21875 57.28125 -14.15625 C 56.007812 -11.101562 54.332031 -8.5625 52.25 -6.53125 C 50.164062 -4.5 47.890625 -2.890625 45.421875 -1.703125 C 42.960938 -0.515625 40.488281 0.304688 38 0.765625 C 35.507812 1.234375 33.234375 1.46875 31.171875 1.46875 C 29.171875 1.46875 26.925781 1.234375 24.4375 0.765625 C 21.945312 0.304688 19.457031 -0.515625 16.96875 -1.703125 C 14.476562 -2.890625 12.203125 -4.5 10.140625 -6.53125 C 8.085938 -8.5625 6.425781 -11.101562 5.15625 -14.15625 C 3.882812 -17.21875 3.25 -20.914062 3.25 -25.25 C 3.25 -29.957031 4.003906 -34.003906 5.515625 -37.390625 C 7.035156 -40.773438 9.109375 -43.535156 11.734375 -45.671875 C 14.359375 -47.804688 17.347656 -49.382812 20.703125 -50.40625 C 24.054688 -51.4375 27.546875 -51.953125 31.171875 -51.953125 Z M 31.171875 0.15625 C 33.441406 0.15625 35.863281 -0.179688 38.4375 -0.859375 C 41.007812 -1.535156 43.40625 -2.765625 45.625 -4.546875 C 47.84375 -6.328125 49.65625 -8.894531 51.0625 -12.25 C 52.46875 -15.613281 53.171875 -19.945312 53.171875 -25.25 C 53.171875 -29.46875 52.671875 -33.050781 51.671875 -36 C 50.671875 -38.957031 49.359375 -41.378906 47.734375 -43.265625 C 46.109375 -45.160156 44.304688 -46.648438 42.328125 -47.734375 C 40.359375 -48.816406 38.398438 -49.5625 36.453125 -49.96875 C 34.503906 -50.375 32.742188 -50.578125 31.171875 -50.578125 C 29.609375 -50.578125 27.847656 -50.375 25.890625 -49.96875 C 23.941406 -49.5625 21.992188 -48.816406 20.046875 -47.734375 C 18.097656 -46.648438 16.296875 -45.160156 14.640625 -43.265625 C 12.992188 -41.378906 11.671875 -38.957031 10.671875 -36 C 9.671875 -33.050781 9.171875 -29.46875 9.171875 -25.25 C 9.171875 -19.945312 9.875 -15.613281 11.28125 -12.25 C 12.6875 -8.894531 14.515625 -6.328125 16.765625 -4.546875 C 19.015625 -2.765625 21.410156 -1.535156 23.953125 -0.859375 C 26.492188 -0.179688 28.898438 0.15625 31.171875 0.15625 Z M 31.171875 0.15625 "/></g></g></g><g fill="#000000" fill-opacity="1"><g transform="translate(326.008259, 109.763778)"><g><path d="M 39.625 -50.984375 L 41.15625 -50.984375 L 24.921875 -23.78125 L 24.921875 0.078125 L 19.078125 0.078125 L 19.078125 -22.171875 L 2.59375 -50.984375 L 9.34375 -50.984375 L 24.109375 -25.09375 Z M 39.625 -50.984375 "/></g></g></g><g fill="#000000" fill-opacity="1"><g transform="translate(34.631173, 153.977949)"><g><path d="M 10.28125 -17.125 L 3.359375 -17.125 L 3.359375 -9.421875 L 9.53125 -9.421875 L 9.53125 -8.9375 L 3.359375 -8.9375 L 3.359375 0.03125 L 1.34375 0.03125 L 1.34375 -17.609375 L 10.28125 -17.609375 Z M 10.28125 -17.125 "/></g></g></g><g fill="#000000" fill-opacity="1"><g transform="translate(68.327405, 153.977949)"><g><path d="M 14.1875 -17.609375 L 14.625 -17.609375 L 14.625 -6.5 C 14.625 -1.832031 12.359375 0.5 7.828125 0.5 C 7.003906 0.5 6.195312 0.398438 5.40625 0.203125 C 4.625 0.015625 3.921875 -0.328125 3.296875 -0.828125 C 2.671875 -1.335938 2.175781 -2.050781 1.8125 -2.96875 C 1.445312 -3.882812 1.265625 -5.0625 1.265625 -6.5 L 1.265625 -17.609375 L 3.28125 -17.609375 L 3.28125 -6.5 C 3.28125 -6.09375 3.300781 -5.617188 3.34375 -5.078125 C 3.394531 -4.535156 3.503906 -3.984375 3.671875 -3.421875 C 3.835938 -2.859375 4.097656 -2.332031 4.453125 -1.84375 C 4.804688 -1.363281 5.289062 -0.96875 5.90625 -0.65625 C 6.53125 -0.351562 7.304688 -0.203125 8.234375 -0.203125 C 9.046875 -0.203125 9.804688 -0.289062 10.515625 -0.46875 C 11.222656 -0.65625 11.851562 -0.988281 12.40625 -1.46875 C 12.957031 -1.945312 13.390625 -2.609375 13.703125 -3.453125 C 14.023438 -4.304688 14.1875 -5.40625 14.1875 -6.75 Z M 14.1875 -17.609375 "/></g></g></g><g fill="#000000" fill-opacity="1"><g transform="translate(106.75588, 153.977949)"><g><path d="M 13.671875 0.03125 L 11.15625 0.03125 L 4.65625 -8.15625 L 3.359375 -8.15625 L 3.359375 0.03125 L 1.34375 0.03125 L 1.34375 -17.609375 C 1.34375 -17.609375 1.550781 -17.609375 1.96875 -17.609375 C 2.394531 -17.609375 2.90625 -17.609375 3.5 -17.609375 C 4.101562 -17.609375 4.695312 -17.609375 5.28125 -17.609375 C 5.875 -17.609375 6.335938 -17.609375 6.671875 -17.609375 C 7.023438 -17.609375 7.515625 -17.554688 8.140625 -17.453125 C 8.765625 -17.347656 9.394531 -17.144531 10.03125 -16.84375 C 10.664062 -16.539062 11.203125 -16.09375 11.640625 -15.5 C 12.085938 -14.914062 12.3125 -14.148438 12.3125 -13.203125 C 12.3125 -12.285156 12.140625 -11.523438 11.796875 -10.921875 C 11.460938 -10.328125 11.023438 -9.847656 10.484375 -9.484375 C 9.941406 -9.117188 9.367188 -8.84375 8.765625 -8.65625 C 8.171875 -8.46875 7.613281 -8.335938 7.09375 -8.265625 Z M 3.359375 -17.125 L 3.359375 -8.640625 L 4.875 -8.640625 C 6.519531 -8.640625 7.816406 -8.957031 8.765625 -9.59375 C 9.722656 -10.226562 10.203125 -11.316406 10.203125 -12.859375 C 10.203125 -14.410156 9.796875 -15.507812 8.984375 -16.15625 C 8.171875 -16.800781 7.046875 -17.125 5.609375 -17.125 Z M 3.359375 -17.125 "/></g></g></g><g fill="#000000" fill-opacity="1"><g transform="translate(143.812293, 153.977949)"><g><path d="M 15.671875 -17.609375 L 15.671875 0.5 L 15.578125 0.5 L 1.828125 -14.75 L 1.828125 0.03125 L 1.34375 0.03125 L 1.34375 -17.9375 L 1.421875 -17.9375 L 15.1875 -2.6875 L 15.1875 -17.609375 Z M 15.671875 -17.609375 "/></g></g></g><g fill="#000000" fill-opacity="1"><g transform="translate(183.360849, 153.977949)"><g><path d="M 1.625 0.03125 L 1.625 -17.609375 L 3.640625 -17.609375 L 3.640625 0.03125 Z M 1.625 0.03125 "/></g></g></g><g fill="#000000" fill-opacity="1"><g transform="translate(211.176753, 153.977949)"><g><path d="M 13.796875 -17.609375 L 13.796875 -17.125 L 8.359375 -17.125 L 8.359375 0.03125 L 6.359375 0.03125 L 6.359375 -17.125 L 0.921875 -17.125 L 0.921875 -17.609375 Z M 13.796875 -17.609375 "/></g></g></g><g fill="#000000" fill-opacity="1"><g transform="translate(248.31715, 153.977949)"><g><path d="M 14.1875 -17.609375 L 14.625 -17.609375 L 14.625 -6.5 C 14.625 -1.832031 12.359375 0.5 7.828125 0.5 C 7.003906 0.5 6.195312 0.398438 5.40625 0.203125 C 4.625 0.015625 3.921875 -0.328125 3.296875 -0.828125 C 2.671875 -1.335938 2.175781 -2.050781 1.8125 -2.96875 C 1.445312 -3.882812 1.265625 -5.0625 1.265625 -6.5 L 1.265625 -17.609375 L 3.28125 -17.609375 L 3.28125 -6.5 C 3.28125 -6.09375 3.300781 -5.617188 3.34375 -5.078125 C 3.394531 -4.535156 3.503906 -3.984375 3.671875 -3.421875 C 3.835938 -2.859375 4.097656 -2.332031 4.453125 -1.84375 C 4.804688 -1.363281 5.289062 -0.96875 5.90625 -0.65625 C 6.53125 -0.351562 7.304688 -0.203125 8.234375 -0.203125 C 9.046875 -0.203125 9.804688 -0.289062 10.515625 -0.46875 C 11.222656 -0.65625 11.851562 -0.988281 12.40625 -1.46875 C 12.957031 -1.945312 13.390625 -2.609375 13.703125 -3.453125 C 14.023438 -4.304688 14.1875 -5.40625 14.1875 -6.75 Z M 14.1875 -17.609375 "/></g></g></g><g fill="#000000" fill-opacity="1"><g transform="translate(286.745617, 153.977949)"><g><path d="M 13.671875 0.03125 L 11.15625 0.03125 L 4.65625 -8.15625 L 3.359375 -8.15625 L 3.359375 0.03125 L 1.34375 0.03125 L 1.34375 -17.609375 C 1.34375 -17.609375 1.550781 -17.609375 1.96875 -17.609375 C 2.394531 -17.609375 2.90625 -17.609375 3.5 -17.609375 C 4.101562 -17.609375 4.695312 -17.609375 5.28125 -17.609375 C 5.875 -17.609375 6.335938 -17.609375 6.671875 -17.609375 C 7.023438 -17.609375 7.515625 -17.554688 8.140625 -17.453125 C 8.765625 -17.347656 9.394531 -17.144531 10.03125 -16.84375 C 10.664062 -16.539062 11.203125 -16.09375 11.640625 -15.5 C 12.085938 -14.914062 12.3125 -14.148438 12.3125 -13.203125 C 12.3125 -12.285156 12.140625 -11.523438 11.796875 -10.921875 C 11.460938 -10.328125 11.023438 -9.847656 10.484375 -9.484375 C 9.941406 -9.117188 9.367188 -8.84375 8.765625 -8.65625 C 8.171875 -8.46875 7.613281 -8.335938 7.09375 -8.265625 Z M 3.359375 -17.125 L 3.359375 -8.640625 L 4.875 -8.640625 C 6.519531 -8.640625 7.816406 -8.957031 8.765625 -9.59375 C 9.722656 -10.226562 10.203125 -11.316406 10.203125 -12.859375 C 10.203125 -14.410156 9.796875 -15.507812 8.984375 -16.15625 C 8.171875 -16.800781 7.046875 -17.125 5.609375 -17.125 Z M 3.359375 -17.125 "/></g></g></g><g fill="#000000" fill-opacity="1"><g transform="translate(323.802021, 153.977949)"><g><path d="M 10.28125 -17.125 L 3.359375 -17.125 L 3.359375 -9.421875 L 9.53125 -9.421875 L 9.53125 -8.9375 L 3.359375 -8.9375 L 3.359375 -0.453125 L 10.28125 -0.453125 L 10.28125 0.03125 L 1.34375 0.03125 L 1.34375 -17.609375 L 10.28125 -17.609375 Z M 10.28125 -17.125 "/></g></g></g></svg>